<svg id="Layer_3" data-name="Layer 3" xmlns="http://www.w3.org/2000/svg" xmlns:xlink="http://www.w3.org/1999/xlink" viewBox="0 0 32 32"><defs><style>.cls-1{fill:url(#linear-gradient);}.cls-2{fill:#00cce9;}.cls-3{fill:#00a7bf;}</style><linearGradient id="linear-gradient" x1="1.01632" y1="1.64167" x2="31.41666" y2="34.83103" gradientUnits="userSpaceOnUse"><stop offset="0.17197" stop-color="#8be7f5"/><stop offset="0.74982" stop-color="#00cce9"/></linearGradient></defs><title>Folder </title><path class="cls-1" d="M27,7H17a2,2,0,0,1-1.6-.8L13.6,3.8A2,2,0,0,0,12,3H5A2,2,0,0,0,3,5V27a2,2,0,0,0,2,2H27a2,2,0,0,0,2-2V9A2,2,0,0,0,27,7Z"/><path class="cls-2" d="M3,27H29a0,0,0,0,1,0,0v0a2,2,0,0,1-2,2H5a2,2,0,0,1-2-2v0A0,0,0,0,1,3,27Z"/><path class="cls-3" d="M21,14H18.5v.58618h-5V14H11a2,2,0,0,0-2,2v6a2,2,0,0,0,2,2H21a2,2,0,0,0,2-2V16A2,2,0,0,0,21,14Zm-5,8a3,3,0,1,1,3-3A3,3,0,0,1,16,22Z"/><path class="cls-3" d="M18.5,14.58617V14a1,1,0,0,0-1-1h-3a1,1,0,0,0-1,1v.58618Z"/></svg>