<svg id="Layer_3" data-name="Layer 3" xmlns="http://www.w3.org/2000/svg" xmlns:xlink="http://www.w3.org/1999/xlink" viewBox="0 0 32 32"><defs><style>.cls-1{fill:url(#linear-gradient);}.cls-2{fill:#00cce9;}.cls-3{fill:#00a7bf;}</style><linearGradient id="linear-gradient" x1="1.01632" y1="1.64167" x2="31.41666" y2="34.83103" gradientUnits="userSpaceOnUse"><stop offset="0.17197" stop-color="#8be7f5"/><stop offset="0.74982" stop-color="#00cce9"/></linearGradient></defs><title>Folder </title><path class="cls-1" d="M27,7H17a2,2,0,0,1-1.6-.8L13.6,3.8A2,2,0,0,0,12,3H5A2,2,0,0,0,3,5V27a2,2,0,0,0,2,2H27a2,2,0,0,0,2-2V9A2,2,0,0,0,27,7Z"/><path class="cls-2" d="M3,27H29a0,0,0,0,1,0,0v0a2,2,0,0,1-2,2H5a2,2,0,0,1-2-2v0a0,0,0,0,1,0,0Z"/><path class="cls-3" d="M19.20984,17.134l-5.41968-3.12906a1,1,0,0,0-1.5.866v6.25812a1,1,0,0,0,1.5.866L19.20984,18.866A1,1,0,0,0,19.20984,17.134Z"/></svg>