<?xml version="1.0" encoding="UTF-8" standalone="no" ?>
<!DOCTYPE svg PUBLIC "-//W3C//DTD SVG 1.1//EN" "http://www.w3.org/Graphics/SVG/1.1/DTD/svg11.dtd">
<svg xmlns="http://www.w3.org/2000/svg" xmlns:xlink="http://www.w3.org/1999/xlink" version="1.1" width="1080" height="1080" viewBox="0 0 1080 1080" xml:space="preserve">
<desc>Created with Fabric.js 5.2.4</desc>
<defs>
</defs>
<g transform="matrix(1 0 0 1 540 540)" id="4e08ed26-f8cf-43f5-9254-7ddbb78b67c4"  >
<rect style="stroke: none; stroke-width: 1; stroke-dasharray: none; stroke-linecap: butt; stroke-dashoffset: 0; stroke-linejoin: miter; stroke-miterlimit: 4; fill: rgb(255,255,255); fill-rule: nonzero; opacity: 1; visibility: hidden;" vector-effect="non-scaling-stroke"  x="-540" y="-540" rx="0" ry="0" width="1080" height="1080" />
</g>
<g transform="matrix(1 0 0 1 540 540)" id="98ae2612-912d-49ac-a796-8f3e0c7ae242"  >
</g>
<g transform="matrix(19.64 0 0 19.64 540 540)"  >
<path style="stroke: none; stroke-width: 1; stroke-dasharray: none; stroke-linecap: butt; stroke-dashoffset: 0; stroke-linejoin: miter; stroke-miterlimit: 4; fill: hsla(348,83%,47%); fill-rule: evenodd; opacity: 1;"  transform=" translate(-32.5, -36.5)" d="M 30.7722 21.1172 C 28.3135 21.496 26.1384 22.5731 24.398 24.2736 C 22.3396 26.2849 21.199 28.8041 21.0149 31.7459 C 20.7652 35.7348 23.6587 41.7315 29.1825 48.673 C 30.6192 50.4785 31.7726 51.7839 32.0409 51.9084 C 32.3042 52.0305 32.7095 52.0305 32.9729 51.9084 C 33.2412 51.7839 34.3946 50.4785 35.8313 48.673 C 38.5856 45.2119 40.6632 42.0319 42.0695 39.1252 C 43.9412 35.2567 44.4128 32.3782 43.6536 29.4578 C 42.6394 25.5569 39.5175 22.4589 35.5117 21.3781 C 34.0954 20.996 32.2265 20.8931 30.7722 21.1172 Z M 33.6711 26.7246 C 34.3493 26.8612 35.0272 27.1315 35.5866 27.4882 C 38.7615 29.5136 39.1712 33.7896 36.4329 36.3215 C 35.78 36.9252 35.0196 37.3475 34.0736 37.6318 C 33.5755 37.7815 33.442 37.7954 32.5069 37.7954 C 31.5718 37.7954 31.4383 37.7815 30.9402 37.6318 C 29.9942 37.3475 29.2338 36.9252 28.5809 36.3215 C 27.0524 34.9082 26.4341 32.8703 26.9298 30.8787 C 27.4385 28.8343 29.1904 27.1707 31.2998 26.7289 C 31.8861 26.6061 33.0722 26.6039 33.6711 26.7246 Z" stroke-linecap="round" />
</g>
<g transform="matrix(NaN NaN NaN NaN 0 0)"  >
<g style=""   >
</g>
</g>
<g transform="matrix(NaN NaN NaN NaN 0 0)"  >
<g style=""   >
</g>
</g>
</svg>